<svg width="64" height="64" viewBox="0 0 64 64" fill="none" xmlns="http://www.w3.org/2000/svg"><rect width="64" height="64" rx="8" fill="#111"/><path d="M10 10v44h44V10zm4 4h36v36H14z" fill="#1a1a1a"/><path d="M16 16h32m-32 8h32m-32 8h32m-32 8h32m-32 8h32M16 16v32m8-32v32m8-32v32m8-32v32m8-32v32" stroke="#00d9a3" stroke-opacity=".15" stroke-width=".5"/><circle cx="32" cy="32" r="6" fill="#00d9a3" fill-opacity=".8"><animate attributeName="r" values="6;7;6" dur="2s" repeatCount="indefinite"/><animate attributeName="fill-opacity" values="0.8;1;0.8" dur="2s" repeatCount="indefinite"/></circle><circle cx="20" cy="20" r="2" fill="#00d9a3" fill-opacity=".6"><animate attributeName="r" values="2;3;2" dur="1.5s" repeatCount="indefinite" begin="0.5s"/></circle><circle cx="44" cy="44" r="2" fill="#00d9a3" fill-opacity=".6"><animate attributeName="r" values="2;3;2" dur="1.5s" repeatCount="indefinite" begin="0.2s"/></circle><circle cx="40" cy="18" r="1.5" fill="#00d9a3" fill-opacity=".5"><animate attributeName="r" values="1.5;2.5;1.5" dur="1.2s" repeatCount="indefinite" begin="0.7s"/></circle><circle cx="18" cy="42" r="1.5" fill="#00d9a3" fill-opacity=".5"><animate attributeName="r" values="1.5;2.5;1.5" dur="1.2s" repeatCount="indefinite" begin="0.4s"/></circle><circle cx="32" cy="32" r="8" stroke="#00d9a3" stroke-opacity=".4" stroke-width=".5"/></svg>